<?xml version="1.0" standalone="no"?>
<!DOCTYPE svg PUBLIC "-//W3C//DTD SVG 20010904//EN"
 "http://www.w3.org/TR/2001/REC-SVG-20010904/DTD/svg10.dtd">
<svg version="1.0" xmlns="http://www.w3.org/2000/svg"
 width="500.000000pt" height="500.000000pt" viewBox="0 0 500.000000 500.000000"
 preserveAspectRatio="xMidYMid meet">
<metadata>
Created by potrace 1.14, written by Peter Selinger 2001-2017
</metadata>
<g transform="translate(0.000000,500.000000) scale(0.100000,-0.100000)"
fill="#000000" stroke="none">
<path d="M2360 4994 c-880 -60 -1645 -547 -2059 -1313 -28 -52 -51 -94 -51
-95 0 -1 42 -1 93 -2 104 0 185 -20 290 -69 l67 -31 0 100 c0 56 5 146 10 200
9 88 13 103 37 129 99 103 448 173 1093 219 242 17 1231 17 1500 0 339 -22
565 -49 780 -92 222 -45 326 -93 356 -166 9 -21 16 -93 20 -201 12 -353 -45
-710 -161 -1008 -56 -145 -147 -334 -178 -371 -14 -16 -27 -39 -31 -51 -19
-61 -205 -311 -323 -433 -39 -41 -80 -84 -90 -95 -17 -18 -56 -54 -157 -143
-92 -82 -171 -133 -235 -151 -98 -29 -235 -52 -331 -57 -47 -2 -152 -8 -235
-13 -152 -9 -297 -7 -316 5 -6 3 -38 4 -72 2 l-62 -3 4 30 c2 17 5 110 8 208
l4 178 -30 11 c-27 11 -29 15 -33 77 -4 51 -1 71 12 88 30 39 8 97 -55 143
-37 27 -103 114 -129 170 -33 71 -33 126 0 199 26 60 80 106 137 118 40 8 44
23 5 23 -121 -1 -239 -147 -223 -275 8 -59 35 -126 71 -173 14 -18 24 -34 23
-36 -38 -25 -63 -36 -84 -36 -31 0 -91 -29 -134 -65 -17 -15 -31 -22 -31 -15
0 23 -93 110 -129 120 -136 38 -222 -18 -369 -240 -58 -87 -82 -115 -97 -113
-11 0 -49 12 -85 26 -337 129 -610 266 -747 375 -22 17 -44 32 -48 32 -28 0
-253 218 -320 310 -26 36 -49 67 -52 70 -8 7 6 -284 18 -382 68 -551 320
-1069 714 -1463 388 -388 879 -631 1440 -711 144 -21 474 -24 615 -5 671 86
1249 410 1672 937 377 470 578 1125 529 1724 -34 410 -156 789 -361 1125 -382
626 -1038 1058 -1767 1165 -134 19 -391 32 -503 24z m-606 -2928 c34 -25 73
-83 63 -92 -2 -3 -15 0 -29 5 -20 7 -30 5 -50 -12 -14 -12 -78 -62 -142 -111
-87 -68 -118 -98 -127 -123 -6 -18 -13 -33 -16 -33 -14 0 -119 34 -129 41 -6
5 -14 5 -19 1 -12 -10 2 11 87 139 114 173 178 222 275 216 37 -3 61 -11 87
-31z m279 -46 c3 -12 14 -20 26 -20 14 0 21 -6 21 -19 0 -10 7 -24 15 -31 8
-7 15 -9 15 -4 0 5 7 -2 16 -14 20 -29 42 -28 56 4 l12 26 12 -33 c14 -38 18
-109 7 -109 -5 0 -44 14 -88 31 -44 16 -117 44 -162 61 -46 17 -83 34 -83 39
0 14 84 80 97 75 7 -3 15 -1 18 4 10 17 32 11 38 -10z m-59 -146 c87 -35 163
-64 168 -64 4 0 27 -8 51 -19 23 -10 54 -23 68 -29 l27 -10 0 -159 0 -158 -42
-110 c-28 -73 -47 -110 -56 -109 -8 0 -37 11 -65 23 -141 64 -466 137 -647
145 -15 1 -29 4 -33 7 -5 6 95 281 117 323 6 12 57 69 112 129 81 87 104 106
121 101 11 -4 92 -35 179 -70z m-391 -86 c-38 -39 -58 -71 -77 -123 -67 -186
-99 -261 -113 -272 -9 -7 -13 -19 -9 -28 3 -9 2 -13 -4 -10 -22 14 -5 70 85
283 44 104 52 116 104 157 31 24 58 44 61 45 2 0 -19 -24 -47 -52z m-671 -121
c-18 -18 -29 -37 -25 -42 5 -4 3 -5 -3 -2 -6 4 -16 -5 -23 -19 -14 -31 -14
-37 1 -28 7 4 8 3 4 -4 -5 -9 -12 -8 -26 1 -25 15 -26 32 -3 23 10 -4 14 -4
10 0 -7 7 80 104 92 104 3 0 -10 -15 -27 -33z m62 17 c9 -24 2 -26 -12 -4 -7
11 -8 20 -3 20 5 0 12 -7 15 -16z m-27 -26 c-3 -8 -6 -5 -6 6 -1 11 2 17 5 13
3 -3 4 -12 1 -19z m67 -6 c2 -4 -4 -9 -15 -9 -11 -1 -17 2 -14 8 7 11 22 12
29 1z m36 -42 c0 -5 -5 -10 -11 -10 -5 0 -7 5 -4 10 3 6 8 10 11 10 2 0 4 -4
4 -10z m13 -27 c-5 -12 -2 -15 10 -10 9 3 17 2 17 -3 0 -13 -21 -13 -40 0 -13
9 -13 11 0 20 20 13 20 13 13 -7z m-33 -8 c0 -8 -4 -15 -10 -15 -5 0 -7 7 -4
15 4 8 8 15 10 15 2 0 4 -7 4 -15z m-212 -10 c-2 -5 -11 -10 -20 -10 -14 -1
-15 1 -6 12 12 15 32 13 26 -2z m-38 -29 c0 -2 -7 -7 -16 -10 -8 -3 -12 -2 -9
4 6 10 25 14 25 6z m361 -40 c-21 -9 -29 -36 -11 -36 6 0 10 4 10 10 0 5 7 7
15 4 8 -4 15 -10 15 -15 0 -4 -8 -5 -17 -2 -12 5 -15 2 -11 -8 4 -9 -1 -15
-12 -15 -9 0 -17 6 -16 13 1 6 -3 11 -9 10 -5 -1 -10 -10 -9 -19 1 -19 -21
-25 -31 -8 -8 12 16 50 33 50 7 0 18 11 24 25 9 20 14 23 26 13 12 -10 11 -14
-7 -22z m-366 5 c-8 -14 -35 -14 -35 0 0 5 4 8 9 4 5 -3 13 0 16 6 4 5 9 8 12
5 3 -2 2 -9 -2 -15z m-30 -28 c16 -16 18 -16 27 0 5 9 13 17 18 17 6 0 0 -12
-12 -26 l-23 -25 -17 21 c-17 21 -36 11 -22 -12 4 -7 3 -8 -4 -4 -16 10 -15
33 1 39 6 3 13 6 14 6 1 1 9 -7 18 -16z m98 0 c-7 -2 -19 -2 -25 0 -7 3 -2 5
12 5 14 0 19 -2 13 -5z m200 -8 c4 -8 2 -17 -3 -20 -6 -4 -10 3 -10 14 0 25 6
27 13 6z m-233 -27 c16 -10 24 -10 40 0 30 19 26 -8 -5 -31 -20 -14 -25 -15
-25 -4 0 20 -33 27 -49 10 -10 -11 -16 -11 -27 -2 -8 6 -14 16 -14 21 0 6 5 6
14 -1 10 -9 16 -8 26 4 15 18 15 18 40 3z m239 -27 c20 -17 20 -19 4 -32 -15
-12 -16 -12 -10 4 3 9 2 17 -3 17 -12 0 -13 -20 -1 -39 6 -9 11 -10 15 -2 4 6
13 11 19 11 7 -1 2 -9 -10 -19 -13 -11 -23 -24 -23 -30 0 -13 -16 -22 -46 -26
-17 -2 -21 1 -15 9 7 8 4 12 -9 12 -10 0 -16 -4 -14 -8 11 -17 -7 -28 -27 -18
-13 7 -25 7 -38 1 -14 -8 -22 -7 -30 3 -6 7 -9 16 -6 19 3 4 2 5 -2 2 -8 -6
-53 35 -53 48 0 5 -7 15 -17 22 -10 7 -12 14 -6 18 6 4 22 -11 37 -33 26 -40
40 -52 30 -26 -3 7 2 16 10 19 9 4 16 12 16 18 0 7 -9 4 -21 -7 -16 -14 -21
-15 -17 -4 7 24 57 38 69 20 8 -11 12 -12 16 -2 2 6 22 12 43 12 21 0 43 6 50
15 15 18 13 19 39 -4z m81 5 c0 -2 -8 -10 -17 -17 -16 -13 -17 -12 -4 4 13 16
21 21 21 13z m331 -96 c5 0 9 5 9 12 0 6 3 9 6 6 10 -11 -15 -45 -36 -51 -21
-5 -29 16 -10 28 6 4 8 10 5 15 -3 4 -2 16 2 27 7 15 9 13 11 -9 2 -16 8 -28
13 -28z m29 46 c0 -3 -4 -8 -10 -11 -5 -3 -10 -1 -10 4 0 6 5 11 10 11 6 0 10
-2 10 -4z m35 -42 c3 -21 2 -41 -4 -47 -5 -5 -8 -15 -7 -21 2 -6 1 -8 -1 -4
-2 4 -11 4 -19 1 -8 -3 -14 0 -14 6 0 6 7 11 16 11 13 0 14 3 4 15 -7 9 -9 23
-4 37 4 13 7 26 6 31 -1 4 2 7 7 7 5 0 12 -16 16 -36z m-147 8 c2 -7 -5 -12
-17 -12 -14 0 -19 5 -14 15 6 17 25 15 31 -3z m232 -16 c0 -3 -4 -8 -10 -11
-5 -3 -10 -1 -10 4 0 6 5 11 10 11 6 0 10 -2 10 -4z m154 -63 c-22 -16 -35 -5
-27 25 5 22 6 22 25 5 18 -16 18 -18 2 -30z m-840 31 c19 -7 21 -30 4 -37 -8
-3 -8 -6 -2 -6 6 -1 21 8 34 19 33 29 39 25 8 -6 -27 -28 -65 -27 -55 1 4 9 1
12 -9 8 -14 -5 -19 8 -7 20 8 8 8 8 27 1z m488 -49 c6 -7 7 0 3 20 -5 23 -4
26 4 15 8 -11 11 -12 11 -2 0 7 5 10 10 7 8 -5 7 -12 -2 -22 -11 -13 -9 -18
10 -31 12 -8 22 -25 22 -38 0 -22 14 -30 43 -25 4 0 7 -5 7 -11 -1 -34 -15
-58 -43 -73 l-32 -16 30 5 c24 5 27 4 12 -5 -13 -8 -31 -6 -69 7 -40 13 -47
18 -34 26 29 16 17 29 -14 13 -17 -9 -30 -11 -30 -5 0 5 6 10 13 10 9 0 8 3
-2 9 -9 6 -10 11 -2 15 6 4 11 3 11 -2 0 -16 79 -11 92 6 10 11 10 16 2 19 -7
2 -10 13 -7 23 3 11 0 20 -6 20 -6 0 -11 -7 -11 -15 0 -8 -6 -15 -12 -15 -8
-1 -6 -6 5 -14 21 -16 22 -26 2 -26 -8 0 -15 5 -15 11 0 6 -8 8 -19 4 -16 -5
-18 -2 -14 17 5 23 5 23 -10 3 -15 -19 -15 -18 -5 18 6 20 15 37 20 37 5 0 8
6 7 13 -1 6 0 21 1 32 l2 20 5 -20 c3 -11 9 -24 15 -30z m295 29 c2 -6 -7 -14
-20 -16 -20 -4 -23 -1 -19 14 5 20 33 21 39 2z m157 -25 c28 -13 41 -55 19
-63 -36 -14 -53 -6 -53 24 0 17 5 30 13 30 8 0 7 4 -3 10 -20 13 -6 13 24 -1z
m-541 -44 c-8 -25 -19 -45 -25 -45 -5 0 -6 4 -3 10 4 6 -1 7 -10 3 -16 -5 -16
-3 0 28 22 43 30 51 20 20 -5 -16 -4 -21 4 -17 6 4 11 16 11 27 0 10 4 19 9
19 6 0 3 -20 -6 -45z m407 25 c-36 -12 -60 -12 -60 0 0 6 19 10 43 9 36 -1 38
-2 17 -9z m280 -4 c0 -20 -16 -29 -41 -21 -16 5 -18 10 -8 21 15 18 49 18 49
0z m-420 -20 c0 -16 -18 -31 -27 -22 -8 8 5 36 17 36 5 0 10 -6 10 -14z m147
-10 c3 -3 -11 -6 -33 -7 l-39 -1 40 -12 c22 -7 49 -10 60 -7 17 4 18 6 3 9
-29 6 -20 22 12 22 17 0 30 -4 30 -10 0 -5 -4 -10 -9 -10 -5 0 -8 -7 -7 -16 0
-9 -8 -21 -19 -28 -39 -22 -46 -46 -14 -46 18 0 20 -2 8 -16 -12 -14 -14 -14
-25 0 -6 9 -16 16 -22 16 -6 0 -10 13 -10 29 1 40 -9 51 -45 50 l-32 -1 33 -9
c35 -10 41 -29 17 -49 -13 -10 -19 -9 -36 6 -30 27 -41 52 -34 74 5 16 14 19
61 16 30 -2 57 -6 61 -10z m388 -16 c3 -5 -1 -10 -10 -10 -9 0 -13 5 -10 10 3
6 8 10 10 10 2 0 7 -4 10 -10z m-525 -50 c0 -16 -5 -32 -10 -35 -6 -4 -7 -11
-4 -17 10 -16 -39 2 -53 20 -11 13 -10 19 4 34 10 11 25 17 36 14 13 -3 17 0
13 10 -3 9 -1 12 4 9 6 -3 10 -19 10 -35z m292 28 c-9 -9 -15 -9 -24 0 -9 9
-7 12 12 12 19 0 21 -3 12 -12z m-612 -14 c0 -8 -4 -12 -10 -9 -5 3 -10 10
-10 16 0 5 5 9 10 9 6 0 10 -7 10 -16z m658 -13 c5 -29 -15 -52 -27 -32 -5 7
-11 9 -14 4 -9 -15 6 -31 33 -34 14 -2 25 -11 25 -19 0 -16 -34 -27 -44 -13
-3 4 -23 17 -43 27 -33 16 -38 24 -38 53 0 18 5 33 11 33 6 0 9 -9 6 -20 -6
-24 21 -28 30 -4 3 8 12 13 19 10 8 -3 14 1 14 10 0 24 25 10 28 -15z m166
-39 c4 -12 11 -20 16 -17 5 3 11 1 14 -4 11 -17 -19 -6 -45 18 -18 15 -25 29
-22 42 5 19 6 19 18 2 7 -10 15 -28 19 -41z m-111 13 c-3 -9 -8 -14 -10 -11
-3 3 -2 9 2 15 9 16 15 13 8 -4z m-313 -25 c0 -5 -2 -10 -4 -10 -3 0 -8 5 -11
10 -3 6 -1 10 4 10 6 0 11 -4 11 -10z m-170 -30 c0 -5 -2 -10 -4 -10 -3 0 -8
5 -11 10 -3 6 -1 10 4 10 6 0 11 -4 11 -10z m587 -20 c1 -11 -2 -18 -8 -15
-11 7 -12 35 -1 35 4 0 8 -9 9 -20z m-247 6 c0 -3 -4 -8 -10 -11 -5 -3 -10 -1
-10 4 0 6 5 11 10 11 6 0 10 -2 10 -4z m280 0 c0 -3 -4 -8 -10 -11 -5 -3 -10
-1 -10 4 0 6 5 11 10 11 6 0 10 -2 10 -4z m-166 -41 c-25 -19 -34 -19 -34 0 0
10 10 15 27 15 26 0 26 -1 7 -15z m113 -7 c-3 -8 -6 -5 -6 6 -1 11 2 17 5 13
3 -3 4 -12 1 -19z m-302 2 c19 -8 19 -9 -2 -9 -12 -1 -25 4 -28 9 -7 12 2 12
30 0z m-78 -16 c-3 -3 -12 -4 -19 -1 -8 3 -5 6 6 6 11 1 17 -2 13 -5z m227
-15 c-6 -11 -24 -2 -24 11 0 5 7 7 15 4 8 -4 12 -10 9 -15z m-62 -13 c4 -6 0
-14 -10 -18 -32 -12 -42 -8 -42 18 0 22 3 24 23 18 12 -4 25 -12 29 -18z m148
15 c0 -5 -7 -14 -15 -21 -8 -7 -12 -16 -9 -21 7 -12 -7 -11 -26 1 -8 5 -10 10
-3 10 6 0 9 9 6 20 -4 16 0 20 21 20 14 0 26 -4 26 -9z m-225 -12 c11 -17 2
-18 -19 -3 -17 12 -17 14 -4 14 9 0 20 -5 23 -11z m183 -50 c30 -10 73 -59 52
-59 -6 0 -13 7 -16 15 -4 8 -10 12 -15 9 -10 -6 -83 15 -76 22 2 2 18 -1 36
-7 44 -15 51 -4 10 15 -40 17 -35 20 9 5z m95 -27 c-6 -4 -13 -16 -16 -27 -4
-16 -5 -14 -6 7 0 14 5 28 12 31 16 6 24 -2 10 -11z"/>
<path d="M1920 1846 c0 -17 170 -80 183 -67 11 11 -2 18 -92 55 -73 29 -91 32
-91 12z"/>
<path d="M1024 1352 c4 -7 2 -12 -4 -12 -6 0 -8 -4 -5 -10 3 -5 1 -10 -4 -10
-6 0 -11 -5 -11 -11 0 -14 18 -2 30 21 7 13 7 21 -2 26 -7 4 -8 3 -4 -4z"/>
<path d="M875 1309 c-11 -16 -1 -19 13 -3 7 8 8 14 3 14 -5 0 -13 -5 -16 -11z"/>
<path d="M1401 1204 c0 -11 3 -14 6 -6 3 7 2 16 -1 19 -3 4 -6 -2 -5 -13z"/>
<path d="M1475 1120 c-3 -5 1 -10 10 -10 9 0 13 5 10 10 -3 6 -8 10 -10 10 -2
0 -7 -4 -10 -10z"/>
<path d="M1408 1079 c13 -5 30 -5 38 -1 9 5 1 8 -23 9 -33 1 -35 0 -15 -8z"/>
<path d="M1560 1094 c0 -8 5 -12 10 -9 6 4 8 11 5 16 -9 14 -15 11 -15 -7z"/>
<path d="M2700 4083 c19 -2 42 -6 50 -9 13 -4 13 -6 0 -14 -12 -8 -9 -10 11
-10 15 0 29 6 32 14 3 8 16 16 29 19 13 2 -17 4 -67 4 -49 0 -74 -2 -55 -4z"/>
<path d="M2091 4061 c-16 -12 -22 -24 -18 -35 10 -24 32 -19 48 12 8 15 18 30
24 34 5 4 1 8 -10 8 -11 0 -31 -9 -44 -19z"/>
<path d="M3030 4073 c0 -9 88 -8 97 1 4 3 -17 6 -45 6 -29 0 -52 -3 -52 -7z"/>
<path d="M3205 4070 c-3 -5 3 -10 14 -10 12 0 21 5 21 10 0 6 -6 10 -14 10 -8
0 -18 -4 -21 -10z"/>
<path d="M1893 4063 c10 -3 17 -14 17 -29 0 -15 4 -23 11 -19 5 4 8 12 6 18
-2 7 3 17 12 24 13 10 9 12 -24 12 -22 -1 -32 -3 -22 -6z"/>
<path d="M2160 4060 c-11 -7 -4 -10 28 -10 23 0 42 5 42 10 0 13 -50 13 -70 0z"/>
<path d="M3505 4050 c-3 -6 1 -7 9 -4 18 7 21 14 7 14 -6 0 -13 -4 -16 -10z"/>
<path d="M1568 4043 c7 -3 16 -2 19 1 4 3 -2 6 -13 5 -11 0 -14 -3 -6 -6z"/>
<path d="M1608 4043 c7 -3 16 -2 19 1 4 3 -2 6 -13 5 -11 0 -14 -3 -6 -6z"/>
<path d="M1971 4040 c-5 -3 -11 -23 -14 -45 -6 -33 -5 -36 4 -15 8 20 12 22
19 10 5 -8 10 -30 10 -47 0 -48 18 -40 31 12 6 25 16 45 22 45 6 0 7 3 4 6 -3
4 -2 14 3 23 7 15 3 17 -32 16 -22 0 -43 -2 -47 -5z"/>
<path d="M3591 4043 c18 -4 79 -122 79 -151 0 -10 5 -23 11 -29 8 -8 8 -13 0
-17 -6 -4 -11 -2 -11 3 0 6 -7 11 -16 11 -14 0 -14 -2 -3 -16 11 -14 10 -19
-10 -35 -20 -17 -22 -22 -12 -50 8 -24 8 -34 -3 -45 -21 -21 -23 -18 -31 32
-5 36 -3 50 10 64 16 17 15 19 -3 29 -27 14 -30 3 -24 -78 4 -51 2 -66 -11
-76 -8 -6 -15 -20 -14 -31 2 -14 -4 -19 -23 -19 -26 0 -69 -20 -60 -28 3 -2
37 0 75 4 39 5 129 16 200 24 173 20 348 53 455 86 76 24 164 61 168 72 2 4
10 7 18 7 7 0 21 12 31 26 17 27 17 27 -17 55 -78 65 -340 130 -640 159 -96 9
-199 11 -169 3z m99 -357 c0 -3 -4 -8 -10 -11 -5 -3 -10 -1 -10 4 0 6 5 11 10
11 6 0 10 -2 10 -4z m-10 -38 c0 -4 -9 -8 -20 -8 -11 0 -20 4 -20 9 0 6 9 9
20 8 11 -1 20 -5 20 -9z"/>
<path d="M2150 4029 c0 -5 5 -7 10 -4 6 3 10 8 10 11 0 2 -4 4 -10 4 -5 0 -10
-5 -10 -11z"/>
<path d="M1320 4010 c0 -13 20 -13 40 0 12 8 9 10 -12 10 -16 0 -28 -4 -28
-10z"/>
<path d="M1605 4005 c11 -9 19 -23 17 -31 -2 -8 4 -14 12 -14 9 0 13 9 12 25
0 14 -6 25 -13 25 -6 0 -20 3 -30 6 -16 5 -16 4 2 -11z"/>
<path d="M2845 4010 c3 -5 10 -10 16 -10 5 0 9 5 9 10 0 6 -7 10 -16 10 -8 0
-12 -4 -9 -10z"/>
<path d="M3065 3990 c-3 -5 -1 -10 4 -10 6 0 11 5 11 10 0 6 -2 10 -4 10 -3 0
-8 -4 -11 -10z"/>
<path d="M3577 3970 c-3 -11 -1 -23 5 -26 5 -3 8 -18 7 -32 -2 -15 1 -27 6
-27 10 0 10 4 0 64 -7 43 -11 48 -18 21z"/>
<path d="M1480 3971 c0 -6 -11 -11 -25 -11 -30 0 -33 -16 -5 -25 29 -9 62 4
58 23 -3 18 -28 29 -28 13z"/>
<path d="M2853 3973 c-7 -3 -13 -12 -13 -21 0 -9 -12 -25 -25 -35 -25 -18 -26
-18 -56 13 -54 54 -119 50 -105 -6 l8 -29 13 25 14 25 1 -28 c0 -40 24 -61 63
-54 18 2 41 1 52 -3 13 -5 26 -2 38 8 10 9 32 16 49 17 43 0 48 23 8 31 -24 5
-30 11 -27 24 6 22 -4 38 -20 33z"/>
<path d="M2984 3913 c-10 -51 -36 -74 -30 -26 2 15 1 20 -1 11 -2 -10 -8 -18
-13 -18 -16 0 -70 -62 -70 -80 0 -10 -4 -22 -10 -25 -14 -9 -12 -42 3 -48 7
-3 6 -6 -5 -6 -9 -1 -26 12 -38 29 -18 25 -24 28 -41 19 -19 -10 -19 -12 -4
-35 18 -28 5 -32 -37 -10 -28 15 -28 14 -28 -15 0 -29 -1 -30 -42 -28 -24 1
-51 -2 -60 -5 -21 -10 -67 32 -48 44 7 4 9 13 5 19 -5 9 -10 9 -21 0 -20 -16
-17 -42 7 -73 l20 -26 -30 0 c-29 0 -31 2 -31 40 0 44 -25 58 -33 18 -2 -13
-3 -6 -1 15 3 20 0 37 -5 37 -13 0 -18 -19 -17 -70 1 -37 4 -45 21 -46 68 -3
72 -5 35 -18 -19 -7 -34 -17 -33 -22 2 -4 -13 -7 -32 -5 -20 1 -35 -2 -35 -8
0 -13 420 -14 441 0 9 5 -14 9 -63 9 -43 0 -78 4 -78 10 0 5 26 7 65 3 43 -4
65 -2 65 5 0 6 -8 13 -17 15 -10 3 -3 5 15 6 21 1 32 -4 32 -13 0 -8 6 -17 13
-19 10 -4 10 -6 0 -6 -7 -1 -13 -5 -13 -11 0 -10 245 -4 262 6 5 3 77 8 160
10 129 3 152 6 164 21 10 15 10 19 -1 21 -8 2 -16 11 -18 20 -4 13 -5 11 -6
-5 -1 -16 -6 -20 -21 -16 -21 6 -27 37 -9 49 6 3 8 17 5 30 -4 14 -2 24 5 24
12 0 -7 20 -37 37 -23 12 -37 7 -47 -19 -4 -13 -1 -18 11 -18 23 -1 52 -24 52
-43 0 -8 -11 -18 -24 -21 -33 -8 -42 -36 -13 -37 12 -1 0 -5 -27 -10 -27 -4
-53 -14 -57 -21 -4 -7 -12 -9 -16 -4 -4 5 -2 11 5 13 17 6 15 23 -3 23 -18 0
-20 16 -2 24 10 5 10 7 0 12 -15 7 -18 84 -3 84 6 0 10 9 10 20 0 16 -7 20
-30 20 -23 0 -30 -4 -30 -20 0 -11 5 -20 10 -20 6 0 10 -21 10 -46 0 -27 -4
-43 -10 -39 -5 3 -10 1 -10 -4 0 -6 5 -11 10 -11 6 0 10 -7 10 -15 0 -11 -10
-15 -37 -14 -21 0 -32 3 -25 6 6 2 10 9 6 14 -3 5 0 9 7 9 7 0 9 3 5 8 -8 7
-13 9 -46 11 -13 1 -20 8 -20 20 0 11 -8 21 -17 24 -14 3 -11 8 14 23 18 10
33 27 33 38 0 13 5 16 18 12 16 -6 16 -5 0 7 -10 8 -15 17 -11 20 3 4 -3 7
-15 7 -12 0 -22 5 -22 11 0 6 -8 8 -20 4 -10 -3 -28 -1 -40 5 -16 8 -20 8 -20
-4 0 -8 5 -18 10 -21 12 -8 13 -25 1 -25 -5 0 -11 8 -15 18 -3 9 -11 25 -18
35 -10 14 -10 19 -1 25 13 8 7 82 -7 82 -3 0 -11 -21 -16 -47z m-4 -149 l55
-10 -42 -18 c-24 -10 -43 -23 -43 -30 -1 -6 -8 1 -16 17 -10 18 -23 27 -40 27
-17 0 -24 4 -20 13 3 6 9 21 13 31 6 19 7 19 22 -1 10 -12 38 -23 71 -29z
m-243 -100 c-3 -3 -12 -4 -19 -1 -8 3 -5 6 6 6 11 1 17 -2 13 -5z m223 -9 c-7
-9 -15 -13 -17 -11 -7 7 7 26 19 26 6 0 6 -6 -2 -15z m-90 -5 c0 -5 -7 -10
-16 -10 -8 0 -12 5 -9 10 3 6 10 10 16 10 5 0 9 -4 9 -10z m-213 -6 c-3 -3
-12 -4 -19 -1 -8 3 -5 6 6 6 11 1 17 -2 13 -5z m-31 -23 c-3 -5 -15 -7 -26 -4
-28 7 -25 13 6 13 14 0 23 -4 20 -9z m-33 -28 c-7 -2 -21 -2 -30 0 -10 3 -4 5
12 5 17 0 24 -2 18 -5z m90 0 c-7 -2 -19 -2 -25 0 -7 3 -2 5 12 5 14 0 19 -2
13 -5z"/>
<path d="M3511 3914 c0 -11 3 -14 6 -6 3 7 2 16 -1 19 -3 4 -6 -2 -5 -13z"/>
<path d="M2550 3889 c0 -5 9 -9 20 -9 11 0 20 2 20 4 0 2 -9 6 -20 9 -11 3
-20 1 -20 -4z"/>
<path d="M1830 3866 c0 -8 -9 -17 -19 -21 -11 -3 -23 -15 -26 -26 -4 -10 -13
-19 -21 -19 -19 0 -18 -10 3 -25 9 -7 13 -17 9 -23 -10 -17 -24 -15 -29 6 -3
13 -6 10 -11 -10 -5 -16 -14 -28 -22 -28 -17 0 -18 -12 -2 -28 9 -9 9 -12 -1
-12 -7 0 -9 -4 -6 -10 3 -5 22 -10 41 -10 19 0 34 5 34 10 0 6 -7 10 -15 10
-8 0 -15 9 -15 20 0 17 7 20 44 20 25 0 48 5 51 10 3 6 -3 10 -14 10 -29 0
-37 21 -15 37 10 8 18 19 16 24 -1 6 7 18 18 27 14 11 19 23 15 35 -8 21 -35
23 -35 3z"/>
<path d="M2655 3871 c-3 -6 -5 -11 -3 -12 27 -6 38 -5 35 4 -5 15 -24 20 -32
8z"/>
<path d="M3293 3853 c15 -2 39 -2 55 0 15 2 2 4 -28 4 -30 0 -43 -2 -27 -4z"/>
<path d="M1545 3831 c3 -5 1 -12 -5 -16 -18 -11 -11 -35 10 -35 11 0 20 3 20
8 -1 21 -13 52 -22 52 -5 0 -7 -4 -3 -9z"/>
<path d="M1894 3815 c-12 -9 -14 -14 -6 -15 7 0 20 7 28 15 20 19 4 20 -22 0z"/>
<path d="M2745 3820 c3 -5 13 -10 21 -10 8 0 14 5 14 10 0 6 -9 10 -21 10 -11
0 -17 -4 -14 -10z"/>
<path d="M2808 3822 c-22 -4 -22 -9 -4 -28 18 -18 46 -18 46 0 0 19 -21 33
-42 28z"/>
<path d="M2655 3800 c-3 -5 1 -10 9 -10 9 0 16 5 16 10 0 6 -4 10 -9 10 -6 0
-13 -4 -16 -10z"/>
<path d="M1671 3784 c0 -11 3 -14 6 -6 3 7 2 16 -1 19 -3 4 -6 -2 -5 -13z"/>
<path d="M1920 3792 c0 -5 7 -17 15 -28 14 -18 16 -18 28 -2 17 21 27 13 27
-19 0 -12 5 -23 11 -23 7 0 9 9 5 23 -3 12 -6 30 -6 40 0 13 -9 17 -40 17 -22
0 -40 -4 -40 -8z"/>
<path d="M3179 3793 c-7 -50 -7 -73 1 -73 6 0 10 18 10 40 0 22 -2 40 -5 40
-3 0 -6 -3 -6 -7z"/>
<path d="M2591 3739 c-12 -36 -9 -44 14 -36 16 7 20 34 6 55 -6 10 -11 5 -20
-19z"/>
<path d="M1870 3750 c-12 -8 -9 -10 13 -10 15 0 27 5 27 10 0 13 -20 13 -40 0z"/>
<path d="M2646 3752 c-3 -6 3 -12 15 -15 12 -3 19 -1 16 6 -5 15 -24 20 -31 9z"/>
<path d="M1535 3730 c3 -5 13 -10 21 -10 8 0 14 5 14 10 0 6 -9 10 -21 10 -11
0 -17 -4 -14 -10z"/>
<path d="M3270 3709 c0 -11 5 -17 10 -14 6 3 10 13 10 21 0 8 -4 14 -10 14 -5
0 -10 -9 -10 -21z"/>
<path d="M2630 3710 c0 -12 17 -12 45 0 17 7 15 9 -12 9 -18 1 -33 -3 -33 -9z"/>
<path d="M2120 3700 c0 -5 5 -10 11 -10 5 0 7 5 4 10 -3 6 -8 10 -11 10 -2 0
-4 -4 -4 -10z"/>
<path d="M1418 3683 c-10 -2 -18 -9 -18 -15 0 -6 10 -8 23 -4 12 3 26 6 30 6
5 0 5 5 2 10 -6 10 -9 11 -37 3z"/>
<path d="M1485 3680 c-3 -5 1 -10 9 -10 9 0 16 5 16 10 0 6 -4 10 -9 10 -6 0
-13 -4 -16 -10z"/>
<path d="M1905 3668 c4 -23 1 -27 -22 -31 -16 -2 -12 -3 8 -2 25 2 36 -2 36
-11 0 -10 -16 -14 -60 -14 -87 0 -67 -7 38 -13 50 -3 80 -3 68 0 -40 8 -26 26
15 20 20 -4 44 -2 52 3 16 10 2 13 -60 13 -15 0 -18 2 -7 4 9 3 17 13 17 24 0
16 -6 18 -40 15 -23 -2 -41 1 -45 8 -3 6 -3 -1 0 -16z"/>
<path d="M2070 3680 c0 -5 9 -10 21 -10 11 0 17 5 14 10 -3 6 -13 10 -21 10
-8 0 -14 -4 -14 -10z"/>
<path d="M1628 3663 c7 -3 16 -2 19 1 4 3 -2 6 -13 5 -11 0 -14 -3 -6 -6z"/>
<path d="M2130 3660 c0 -5 4 -10 9 -10 6 0 13 5 16 10 3 6 -1 10 -9 10 -9 0
-16 -4 -16 -10z"/>
<path d="M2077 3643 c-15 -14 -6 -33 16 -32 18 1 18 2 4 6 -18 5 -18 5 0 19
15 11 16 13 2 14 -9 0 -19 -3 -22 -7z"/>
<path d="M1718 3633 c6 -2 18 -2 25 0 6 3 1 5 -13 5 -14 0 -19 -2 -12 -5z"/>
<path d="M1708 3613 c7 -3 16 -2 19 1 4 3 -2 6 -13 5 -11 0 -14 -3 -6 -6z"/>
<path d="M2120 3611 c0 -4 19 -8 42 -10 23 -1 39 1 35 6 -11 10 -77 14 -77 4z"/>
<path d="M2445 3610 c-3 -5 1 -10 10 -10 9 0 13 5 10 10 -3 6 -8 10 -10 10 -2
0 -7 -4 -10 -10z"/>
<path d="M2030 3590 c0 -5 9 -10 20 -10 11 0 20 5 20 10 0 6 -9 10 -20 10 -11
0 -20 -4 -20 -10z"/>
<path d="M252 3331 c-86 -34 -135 -95 -167 -206 -33 -112 -2 -251 89 -395 52
-82 65 -99 151 -186 88 -89 162 -150 245 -202 36 -23 70 -46 77 -52 7 -5 15
-10 17 -10 3 0 34 -17 68 -38 66 -40 186 -99 298 -146 36 -15 84 -36 108 -47
41 -18 72 -24 72 -14 0 3 -7 13 -16 23 -32 35 -84 112 -109 158 -14 26 -29 52
-33 58 -13 16 -106 199 -140 276 -25 55 -77 202 -112 315 -14 46 -46 182 -60
255 -15 73 -28 89 -126 144 -82 47 -205 86 -268 85 -28 0 -70 -8 -94 -18z"/>
<path d="M3864 2989 c-11 -6 -28 -23 -37 -39 -44 -74 3 -160 88 -160 59 0 94
30 102 88 4 27 1 52 -8 68 -25 47 -94 67 -145 43z"/>
<path d="M3560 2827 c0 -73 -80 -137 -154 -123 -44 9 -93 51 -106 92 -15 46
-33 31 -20 -16 24 -85 79 -130 158 -130 43 0 93 28 124 70 22 30 30 130 11
137 -9 3 -13 -7 -13 -30z"/>
<path d="M2925 2841 c-51 -15 -83 -58 -80 -108 4 -47 29 -81 73 -94 108 -32
186 97 104 173 -29 27 -64 38 -97 29z"/>
<path d="M3944 2726 c-42 -11 -74 -31 -74 -47 0 -21 42 -49 73 -49 63 0 137
32 137 58 -1 34 -74 54 -136 38z m-21 -23 c-15 -5 -18 -43 -4 -43 5 0 14 7 21
15 17 20 33 19 48 -5 12 -19 10 -20 -42 -20 -54 0 -55 0 -51 28 2 15 4 28 4
30 1 1 9 2 19 1 10 0 12 -3 5 -6z m121 -19 c5 -13 2 -15 -16 -10 -13 3 -27 6
-33 6 -14 0 17 20 31 20 7 0 15 -7 18 -16z"/>
<path d="M2955 2550 c22 -5 49 -11 60 -13 11 -3 23 -6 27 -6 4 -1 5 -8 2 -16
-4 -8 -1 -15 5 -15 19 0 12 28 -11 44 -14 10 -42 16 -73 15 l-50 -2 40 -7z"/>
<path d="M2865 2530 c-4 -6 5 -10 20 -10 15 0 24 4 20 10 -3 6 -12 10 -20 10
-8 0 -17 -4 -20 -10z"/>
<path d="M2943 2523 c9 -2 25 -2 35 0 9 3 1 5 -18 5 -19 0 -27 -2 -17 -5z"/>
<path d="M3006 2504 c-8 -21 -1 -28 18 -21 9 4 13 13 10 22 -8 20 -20 19 -28
-1z"/>
<path d="M2860 2500 c0 -15 55 -39 69 -31 9 6 4 13 -19 25 -38 18 -50 20 -50
6z"/>
<path d="M2950 2501 c0 -6 9 -9 19 -8 11 0 17 5 15 9 -7 11 -34 10 -34 -1z"/>
<path d="M3465 2498 c-44 -6 -82 -12 -84 -14 -3 -2 17 -24 44 -48 46 -41 48
-44 37 -72 -6 -16 -11 -48 -9 -71 1 -24 -1 -44 -6 -46 -4 -1 -10 -34 -12 -72
-3 -39 -10 -92 -16 -120 -11 -44 -10 -50 6 -60 10 -5 36 -27 58 -47 22 -21 42
-38 45 -38 9 0 52 52 52 62 0 5 10 22 22 38 l22 30 -22 45 c-12 25 -22 55 -22
66 0 11 -7 34 -16 50 -8 17 -26 61 -38 97 -13 37 -26 74 -30 83 -4 10 6 34 29
67 36 53 41 63 28 61 -5 -1 -44 -6 -88 -11z"/>
</g>
</svg>
